{"title":"Caught in the Crossfire-AC3-XviD-DVDRip[Eng]2010 2Lions-Team","uid":5698926,"size":1402412164,"categoryP":"video","categoryS":"movies","magnet":"?xt=urn:btih:581966eb82e5c15e9eb0a2ea4ca0d066d61a7ce1&amp;dn=Caught+in+the+Crossfire-AC3-XviD-DVDRip%5BEng%5D2010+2Lions-Team&amp;tr=udp%3A%2F%2Ftracker.openbittorrent.com%3A80&amp;tr=udp%3A%2F%2Fopen.demonii.com%3A1337&amp;tr=udp%3A%2F%2Ftracker.coppersurfer.tk%3A6969&amp;tr=udp%3A%2F%2Fexodus.desync.com%3A6969","seeders":0,"leechers":1,"uploader":null,"files":11,"time":1279417005,"description":"Two detectives investigating a gang-related find themselves targeted by both gang members and crooked cops.\n &lt;a href=&quot;\nhttp://www.imdb.com/title/tt1449379/&quot; rel=&quot;nofollow&quot; target=&quot;_NEW&quot;&gt;\nhttp://www.imdb.com/title/tt1449379/&lt;/a&gt;\n\nSubtitles (srt) : Dutch, English.\n\nCovers included.\n\nCaught in the Crossfire gaat over corruptie binnen de politie. Twee rechercheurs krijgen bij het onderzoek naar een moordzaak te maken met een groep corrupte agenten en een criminele bende. Tino (50 Cent) is een bendelid dat informant wordt van de politie.\n &lt;a href=&quot;\nhttp://www.moviemeter.nl/film/66243&quot; rel=&quot;nofollow&quot; target=&quot;_NEW&quot;&gt;\nhttp://www.moviemeter.nl/film/66243&lt;/a&gt;\n\nOndertitels (srt) : Engels, Nederlands.\n\nHoesjes bijgevoegd.\n\nGeneral\nComplete name                    : Caught in the Crossfire-AC3-XviD-DVDRip[Eng]2010 2Lions-Team\\Caught in the Crossfire-AC3-XviD-DVDRip[Eng]2010.avi\nFormat                           : AVI\nFormat/Info                      : Audio Video Interleave\nFile size                        : 1.31 GiB\nDuration                         : 1h 24mn\nOverall bit rate                 : 2 208 Kbps\nWriting application              : VirtualDubMod 1.5.4.1 (build 2178/release)\nWriting library                  : VirtualDubMod build 2178/release\n\nVideo\nID                               : 0\nFormat                           : MPEG-4 Visual\nFormat profile                   : Simple@L3\nFormat settings, BVOP            : No\nFormat settings, QPel            : No\nFormat settings, GMC             : No warppoints\nFormat settings, Matrix          : Default (H.263)\nCodec ID                         : XVID\nCodec ID/Hint                    : XviD\nDuration                         : 1h 24mn\nBit rate                         : 1 750 Kbps\nWidth                            : 720 pixels\nHeight                           : 400 pixels\nDisplay aspect ratio             : 16:9\nFrame rate                       : 23.976 fps\nResolution                       : 8 bits\nColorimetry                      : 4:2:0\nScan type                        : Progressive\nBits/(Pixel*Frame)               : 0.254\nStream size                      : 1.04 GiB (79%)\nWriting library                  : XviD 1.1.2 (UTC 2006-11-01)\n\nAudio\nID                               : 1\nFormat                           : AC-3\nFormat/Info                      : Audio Coding 3\nFormat_Settings_ModeExtension    : CM (complete main)\nCodec ID                         : 2000\nDuration                         : 1h 24mn\nBit rate mode                    : Constant\nBit rate                         : 448 Kbps\nChannel(s)                       : 6 channels\nChannel positions                : Front: L C R, Side: L R, LFE\nSampling rate                    : 48.0 KHz\nStream size                      : 271 MiB (20%)\nAlignment                        : Split accross interleaves\nInterleave, duration             : 42 ms (1.00 video frame)\nInterleave, preload duration     : 500 ms\n\nThanks to Bradje for the source.\n\nBrought to you by \n2Lions Team\n\nmeer zien??\nKom dan eens kijken op ons forum \n                   \n2Lions-Team and Film-Terminal for all your Dutch MOVIES and more\n\n******************************************\n\nDON T HIT AND RUN Niet gelijk afhaken als de FILM binnen is blijf seeden. \n\nDon`t quit after you finished the download, but keep seeding\n\nThere are fake torrents from uploaders who use our team name.\nThose are not ours, or members from our team.\nWe 2Lions-Team and Film-Terminal are not responsible for the fake posts on our name\n\nWij 2Lions-Team en Film-Terminal zijn niet verantwoordelijk voor die zieke FAKE posten die op onze naam worden gedaan\n\nPlease check our site !!!\n\nto the fakers , get a life !!!","torrent":{"xt":"urn:btih:581966eb82e5c15e9eb0a2ea4ca0d066d61a7ce1","amp;dn":"Caught+in+the+Crossfire-AC3-XviD-DVDRip%5BEng%5D2010+2Lions-Team","amp;tr":["udp%3A%2F%2Ftracker.openbittorrent.com%3A80","udp%3A%2F%2Fopen.demonii.com%3A1337","udp%3A%2F%2Ftracker.coppersurfer.tk%3A6969","udp%3A%2F%2Fexodus.desync.com%3A6969"],"infoHash":"581966eb82e5c15e9eb0a2ea4ca0d066d61a7ce1","infoHashBuffer":{"type":"Buffer","data":[88,25,102,235,130,229,193,94,158,176,162,234,76,160,208,102,214,26,124,225]},"announce":[],"urlList":[]}}